<svg xmlns="http://www.w3.org/2000/svg" viewBox="0 0 220 260" fill="none">
  <path
    d="M109 248c-3 0-5.8-1.4-7.6-3.9L63 187.8c-17.4-25.5-33.5-52.6-33.5-88.8C29.5 47.4 65.9 11 111 11S192.5 47.4 192.5 99c0 36.2-16.1 63.3-33.5 88.8l-42.4 56.3c-1.8 2.5-4.6 3.9-7.6 3.9Z"
    fill="#FFEC80"
  />
  <path
    d="M108.8 220.7l-31.9-46.9C60.3 149.6 47 127.1 47 99.6c0-38.8 28.6-70.1 64.2-70.1s64.2 31.3 64.2 70.1c0 27.6-13.3 50-29.9 74.2l-36.7 47Z"
    fill="#16346A"
  />
  <path
    d="M97 214.2 79.8 97.4c0-33 25.4-59.8 56.7-59.8 22.8 0 42.5 14.4 51.5 35.1-8-12.9-22-21.3-37.8-21.3-24.9 0-45.2 20.8-45.2 46.5v116.3H97Z"
    fill="#FFEC80"
  />
  <path
    d="M69.2 160.5c-7.8 0-14.1-6.3-14.1-14.1 0-4.5 2.1-8.7 5.6-11.4-9.4-7-15.5-18.5-15.5-31.6 0-19.9 14-36.3 32.3-38.8-2.8 6.1-4.4 13-4.4 20.2 0 9 2.5 17.4 6.8 24.5 2.9 4.8 4.5 10.4 4.5 16.2 0 8.2-3.1 15.8-8.6 21.6 2.2 2.5 3.5 5.8 3.5 9.4 0 2.2-.5 4.2-1.4 6.1-2.3 2.1-5.3 3.4-8.7 3.4Z"
    fill="#FFEC80"
  />
  <path
    d="M120.5 83.1c0 6.2-5 11.2-11.2 11.2S98 89.3 98 83.1s5-11.2 11.3-11.2c6.2 0 11.2 5 11.2 11.2Z"
    fill="#FFEC80"
  />
  <circle cx="131.7" cy="57.4" r="7.2" fill="#FFEC80" />
  <circle cx="153.6" cy="58.4" r="7.2" fill="#FFEC80" />
  <circle cx="176.1" cy="76.4" r="7.2" fill="#FFEC80" />
  <circle cx="185.2" cy="99.6" r="7.2" fill="#FFEC80" />
  <circle cx="184.5" cy="123.6" r="7.2" fill="#FFEC80" />
  <circle cx="174.9" cy="146.2" r="7.2" fill="#FFEC80" />
  <circle cx="159.4" cy="165.2" r="7.2" fill="#FFEC80" />
  <circle cx="139.1" cy="180.9" r="7.2" fill="#FFEC80" />
  <circle cx="116.6" cy="194.6" r="7.2" fill="#FFEC80" />
</svg>
